<svg xmlns="http://www.w3.org/2000/svg" xmlns:xlink="http://www.w3.org/1999/xlink" viewBox="0 0 24 24"><defs><path id="a" d="M0 0h20.25v20.25H0z"/></defs><g fill="none" fill-rule="evenodd"><g transform="translate(1.875 1.875)"><mask id="b" fill="#fff"><use xlink:href="#a"/></mask><path fill="#F2A900" d="M19.947 12.574C18.595 17.998 13.1 21.3 7.675 19.947 2.252 18.595-1.05 13.1.303 7.677 1.655 2.252 7.15-1.05 12.573.303c5.425 1.352 8.726 6.847 7.374 12.271z" mask="url(#b)"/></g><path fill="#FFF" d="M14.27 10.538c-.313 1.255-2.247.617-2.874.46l.553-2.217c.627.156 2.647.448 2.32 1.757zm-.344 3.579c-.343 1.38-2.666.634-3.42.447l.61-2.446c.754.188 3.169.56 2.81 1.999zm2.539-3.56c.201-1.347-.825-2.07-2.227-2.554l.455-1.825-1.111-.277-.443 1.777a46.364 46.364 0 00-.89-.21l.446-1.788-1.11-.277-.456 1.824c-.242-.055-.48-.109-.71-.166l.002-.006-1.533-.383-.295 1.187s.824.189.807.2c.45.113.531.41.517.647L9.4 10.785c.031.008.071.02.116.037l-.118-.03-.726 2.913c-.055.137-.195.342-.51.264.012.016-.807-.202-.807-.202l-.552 1.272 1.446.36c.27.068.533.138.792.205l-.46 1.846 1.11.277.456-1.827c.303.083.597.159.885.23l-.454 1.818 1.111.277.46-1.843c1.895.359 3.32.214 3.919-1.5.483-1.379-.024-2.174-1.021-2.693.726-.168 1.273-.645 1.419-1.631z"/><path d="M0 0h24v24H0z"/></g></svg>