<svg xmlns="http://www.w3.org/2000/svg" xmlns:xlink="http://www.w3.org/1999/xlink" viewBox="0 0 173.98 51.55"><defs><style>.cls-1{fill:#a6a6a6;}.cls-10,.cls-2,.cls-3{fill:#fff;}.cls-2{stroke:#fff;stroke-miterlimit:10;stroke-width:0.2px;}.cls-4{fill:url(#linear-gradient);}.cls-5{fill:url(#linear-gradient-2);}.cls-6{fill:url(#linear-gradient-3);}.cls-7{fill:url(#linear-gradient-4);}.cls-8{opacity:0.2;}.cls-10,.cls-8,.cls-9{isolation:isolate;}.cls-9{opacity:0.12;}.cls-10{opacity:0.25;}</style><linearGradient id="linear-gradient" x1="28.09" y1="202.81" x2="6.47" y2="181.18" gradientTransform="matrix(1, 0, 0, -1, 0, 214.03)" gradientUnits="userSpaceOnUse"><stop offset="0" stop-color="#00a0ff"/><stop offset="0.01" stop-color="#00a1ff"/><stop offset="0.26" stop-color="#00beff"/><stop offset="0.51" stop-color="#00d2ff"/><stop offset="0.76" stop-color="#00dfff"/><stop offset="1" stop-color="#00e3ff"/></linearGradient><linearGradient id="linear-gradient-2" x1="43.6" y1="188.26" x2="12.42" y2="188.26" gradientTransform="matrix(1, 0, 0, -1, 0, 214.03)" gradientUnits="userSpaceOnUse"><stop offset="0" stop-color="#ffe000"/><stop offset="0.41" stop-color="#ffbd00"/><stop offset="0.78" stop-color="orange"/><stop offset="1" stop-color="#ff9c00"/></linearGradient><linearGradient id="linear-gradient-3" x1="31.99" y1="185.3" x2="2.67" y2="155.97" gradientTransform="matrix(1, 0, 0, -1, 0, 214.03)" gradientUnits="userSpaceOnUse"><stop offset="0" stop-color="#ff3a44"/><stop offset="1" stop-color="#c31162"/></linearGradient><linearGradient id="linear-gradient-4" x1="9.4" y1="213.81" x2="22.5" y2="200.71" gradientTransform="matrix(1, 0, 0, -1, 0, 214.03)" gradientUnits="userSpaceOnUse"><stop offset="0" stop-color="#32a071"/><stop offset="0.07" stop-color="#2da771"/><stop offset="0.48" stop-color="#15cf74"/><stop offset="0.8" stop-color="#06e775"/><stop offset="1" stop-color="#00f076"/></linearGradient></defs><title>google_play_store</title><g id="レイヤー_2" data-name="レイヤー 2"><g id="artwork"><rect width="173.98" height="51.55" rx="6.44" ry="6.44"/><path class="cls-1" d="M167.53,1a5.41,5.41,0,0,1,5.41,5.41V45.11a5.41,5.41,0,0,1-5.41,5.41H6.44A5.42,5.42,0,0,1,1,45.11V6.44A5.42,5.42,0,0,1,6.44,1H167.53m0-1H6.44A6.46,6.46,0,0,0,0,6.44V45.11a6.46,6.46,0,0,0,6.44,6.44H167.53A6.46,6.46,0,0,0,174,45.11V6.44A6.46,6.46,0,0,0,167.53,0Z"/><path class="cls-2" d="M61.11,13.2a3.49,3.49,0,0,1-1,2.58,3.77,3.77,0,0,1-2.84,1.15,4,4,0,0,1-4-4,4,4,0,0,1,4-4,4.06,4.06,0,0,1,1.58.32A3.17,3.17,0,0,1,60.1,10l-.68.68a2.57,2.57,0,0,0-2.11-.92,2.89,2.89,0,0,0-2.11.86,2.93,2.93,0,0,0-.9,2.23,3,3,0,0,0,.9,2.23,3.07,3.07,0,0,0,4.27,0,2.44,2.44,0,0,0,.65-1.56H57.31v-.93h3.74A2.93,2.93,0,0,1,61.11,13.2Z"/><path class="cls-2" d="M67.05,10H63.53v2.45H66.7v.93H63.53V15.8h3.52v.95H62.53V9h4.52Z"/><path class="cls-2" d="M71.24,16.75h-1V10H68.08V9H73.4v1H71.24Z"/><path class="cls-2" d="M77.24,16.75V9h1v7.73Z"/><path class="cls-2" d="M82.64,16.75h-1V10H79.49V9H84.8v1H82.64Z"/><path class="cls-2" d="M94.86,15.75a4,4,0,0,1-5.67,0,3.94,3.94,0,0,1-1.14-2.86A4,4,0,0,1,89.19,10a4,4,0,0,1,5.67,0A3.94,3.94,0,0,1,96,12.89,3.94,3.94,0,0,1,94.86,15.75Zm-4.94-.64a3,3,0,0,0,4.21,0A3,3,0,0,0,95,12.89a3,3,0,0,0-.86-2.22,3,3,0,0,0-4.21,0,3,3,0,0,0-.85,2.22A3,3,0,0,0,89.92,15.11Z"/><path class="cls-2" d="M97.39,16.75V9H98.6l3.76,6h0l0-1.49V9h1v7.73h-1l-3.93-6.3h0l0,1.49v4.81Z"/><path class="cls-3" d="M87.81,28a5.48,5.48,0,1,0,5.5,5.48A5.4,5.4,0,0,0,87.81,28Zm0,8.8a3.33,3.33,0,1,1,3.09-3.32A3.18,3.18,0,0,1,87.81,36.83ZM75.8,28a5.48,5.48,0,1,0,5.51,5.48A5.4,5.4,0,0,0,75.8,28Zm0,8.8a3.33,3.33,0,1,1,3.1-3.32A3.17,3.17,0,0,1,75.8,36.83ZM61.53,29.71V32h5.56A4.86,4.86,0,0,1,65.83,35a5.7,5.7,0,0,1-4.3,1.7,6.19,6.19,0,0,1,0-12.38A5.9,5.9,0,0,1,65.72,26l1.64-1.64A8.11,8.11,0,0,0,61.53,22a8.51,8.51,0,1,0,0,17,7.82,7.82,0,0,0,5.94-2.38,7.72,7.72,0,0,0,2-5.44,7.14,7.14,0,0,0-.13-1.46Zm58.39,1.81a5.1,5.1,0,0,0-4.7-3.49,5.21,5.21,0,0,0-5.17,5.48A5.36,5.36,0,0,0,115.49,39a5.43,5.43,0,0,0,4.57-2.43l-1.87-1.24a3.12,3.12,0,0,1-2.7,1.51,2.78,2.78,0,0,1-2.65-1.66l7.33-3Zm-7.48,1.83a3,3,0,0,1,2.87-3.2,2.13,2.13,0,0,1,2,1.16Zm-6,5.31h2.41V22.55h-2.41Zm-3.94-9.4h-.08A3.78,3.78,0,0,0,99.57,28a5.49,5.49,0,0,0,0,11,3.76,3.76,0,0,0,2.89-1.24h.08v.79c0,2.09-1.12,3.22-2.93,3.22a3,3,0,0,1-2.76-2l-2.1.88a5.23,5.23,0,0,0,4.86,3.23c2.83,0,5.21-1.66,5.21-5.71V28.36h-2.28Zm-2.76,7.57a3.33,3.33,0,0,1,0-6.64,3.09,3.09,0,0,1,2.93,3.34A3.06,3.06,0,0,1,99.78,36.83ZM131.2,22.55h-5.76V38.66h2.4v-6.1h3.36a5,5,0,1,0,0-10Zm.06,7.77h-3.42V24.79h3.42a2.77,2.77,0,1,1,0,5.53ZM146.12,28a4.52,4.52,0,0,0-4.29,2.47l2.14.89a2.26,2.26,0,0,1,2.19-1.18,2.31,2.31,0,0,1,2.53,2.07v.17a5.28,5.28,0,0,0-2.51-.63c-2.3,0-4.64,1.27-4.64,3.63a3.73,3.73,0,0,0,4,3.55,3.4,3.4,0,0,0,3.07-1.58h.08v1.24H151V32.46C151,29.6,148.88,28,146.12,28Zm-.29,8.83c-.79,0-1.89-.39-1.89-1.37,0-1.24,1.37-1.72,2.55-1.72a4.29,4.29,0,0,1,2.2.54A2.92,2.92,0,0,1,145.83,36.83Zm13.64-8.48-2.76,7h-.08l-2.86-7h-2.59l4.29,9.77L153,43.55h2.51l6.61-15.2ZM137.81,38.66h2.4V22.55h-2.4Z"/><path class="cls-4" d="M13.45,9.71a2.58,2.58,0,0,0-.6,1.81V40a2.58,2.58,0,0,0,.6,1.81l.09.09,16-16v-.37l-16-16Z"/><path class="cls-5" d="M34.83,31.29,29.51,26v-.37l5.32-5.33.12.07,6.31,3.59c1.8,1,1.8,2.69,0,3.72L35,31.22Z"/><path class="cls-6" d="M35,31.22l-5.44-5.44L13.45,41.84a2.1,2.1,0,0,0,2.68.08L35,31.22"/><path class="cls-7" d="M35,20.33,16.13,9.64a2.11,2.11,0,0,0-2.68.07L29.51,25.78Z"/><path class="cls-8" d="M34.83,31.1,16.13,41.73a2.17,2.17,0,0,1-2.59,0h0l-.09.1h0l.09.09h0a2.17,2.17,0,0,0,2.59,0L35,31.22Z"/><path class="cls-9" d="M13.45,41.65a2.56,2.56,0,0,1-.6-1.81V40a2.58,2.58,0,0,0,.6,1.81l.09-.1Z"/><path class="cls-9" d="M41.26,27.45,34.83,31.1l.12.12,6.31-3.58a2.28,2.28,0,0,0,1.35-1.86h0A2.44,2.44,0,0,1,41.26,27.45Z"/><path class="cls-10" d="M16.13,9.82,41.26,24.1a2.43,2.43,0,0,1,1.35,1.68h0a2.28,2.28,0,0,0-1.35-1.87L16.13,9.64c-1.8-1-3.28-.18-3.28,1.89v.18C12.85,9.65,14.33,8.8,16.13,9.82Z"/></g></g></svg>