<svg xmlns="http://www.w3.org/2000/svg" viewBox="0 0 24 24"><g fill="none" fill-rule="evenodd"><path fill="#000" fill-rule="nonzero" d="M2.658 6.602v10.75l9.311 5.376 9.31-5.375V6.602l-9.31-5.375z"/><path stroke="#000" stroke-width=".804" d="M21.28 6.602l-9.31-5.375-9.312 5.375v10.75l9.311 5.376 9.31-5.375z"/><path fill="#FFF" fill-rule="nonzero" d="M16.204 12.732l-1.723-1.035-.884.511-1.862-1.076.875-.511-1.664-.964-.88.51-1.904-1.1 3.863-2.215 5.49 3.163 1.594-.923-7.088-4.146L4.83 9.133l3.516 2.03-.907.526 1.699.961.886-.518 1.855 1.072-.9.52 1.774 1.017.89-.518 1.638.945-3.246 1.88-7.205-4.173v1.99l7.197 4.144 6.675-3.85-3.346-1.934z"/><path d="M0 0h24v24H0z"/></g></svg>