<svg xmlns="http://www.w3.org/2000/svg" xmlns:xlink="http://www.w3.org/1999/xlink" viewBox="0 0 24 24"><defs><path id="a" d="M.004 0h19.432v19.44H.004z"/></defs><g fill="none" fill-rule="evenodd"><path fill="#67B2E8" d="M16.644 17.773c0-.157.053-.472.053-.682.105-1.786-.683-3.31-2.259-4.254 0 0-1.68-.84-2.048-3.046-.42-2.259 1.103-4.412 3.309-4.832a5.073 5.073 0 011.995.105c.578.21 1.208.42 1.734.683.42.21.787.367 1.155.63 0 0 .315.157.315.262 0 .473-.052 1.05-.105 1.523-.263 2.836-.998 5.41-2.573 7.773-.315.525-.84 1.208-1.208 1.68.052.21-.315.158-.368.158z"/><path fill="#F7A800" d="M2.937 6.587A19.455 19.455 0 016.77 4.854c1.785-.525 3.781-.735 5.62-.683.84 0 1.837.21 2.678.368 0 0-3.046 2.1-3.362 3.729-.052.262.21.262.158.525 0 .42-.263 1.47-.368 1.838-.63 2.206-3.15 3.256-5.304 2.626a4.326 4.326 0 01-2.678-2.206c-.053-.105-.368-1.733-.42-2.363-.106-.736-.158-2.049-.158-2.101"/><path fill="#00C4B3" d="M11.97 21.975c-.368-.158-.683-.42-.998-.63-.998-.683-1.943-1.418-2.836-2.311-.84-.893-1.628-1.891-2.258-2.941a16.504 16.504 0 01-1.644-3.176s.12-.028.068-.08l.105.052c.316.263.683.473 1.05.63.473.21.999.315 1.471.368a4.766 4.766 0 002.941-.63c.473-.263.998-.473 1.576-.525 1.995-.263 4.044.84 4.621 2.783.316.998.42 2.153-.052 3.046-.053.105-.473.84-.525.893-.998.945-1.838 1.575-3.046 2.258l-.473.263z"/><g transform="translate(2.25 3.375)"><mask id="b" fill="#fff"><use xlink:href="#a"/></mask><path fill="#000" d="M9.72 18.495l.105-.053c1.155-.683 2.258-1.523 3.256-2.416.053-.052.105-.105.158-.21.052-.105.105-.262.21-.367.472-.946.577-1.996.262-2.994-.577-1.943-2.468-3.151-4.464-2.94-.525.052-1.05.262-1.575.524a4.844 4.844 0 01-2.941.63 4.657 4.657 0 01-1.47-.367 4.295 4.295 0 01-1.051-.63l-.105-.053c0 .053 0 .053.052.105a20.03 20.03 0 001.523 2.994 17.796 17.796 0 005.095 5.199c.262.21.577.42.945.578zm4.832-4.15c.052 0 .052-.052.105-.104.367-.473.735-.946 1.05-1.47a17.546 17.546 0 002.784-7.984c.052-.472.052-.997.052-1.47v-.105l-.158-.053c-.367-.21-.787-.42-1.155-.63-.578-.262-1.155-.525-1.733-.683-2.153-.682-4.517.526-5.2 2.679a3.668 3.668 0 00-.104 1.996 4.164 4.164 0 001.89 2.783l.21.105c1.523.945 2.469 2.626 2.364 4.464-.053.158-.053.315-.105.473zM.844 3.213v.105c0 .683.053 1.365.105 2.048.053.63.158 1.208.316 1.838 0 .105.052.21.105.315.945 2.049 3.413 2.994 5.514 1.996A4.076 4.076 0 009.09 6.888c.105-.42.157-.788.157-1.208 0-.262.053-.525.105-.788a4.928 4.928 0 012.941-3.623l.263-.105s.052 0 0-.053c-.84-.157-1.68-.21-2.573-.262A17.727 17.727 0 00.844 3.212zM9.72 19.44l-.105-.053A19.467 19.467 0 01.635 7.623a17.862 17.862 0 01-.473-2.415 19.467 19.467 0 01-.158-2.469c0-.157 0-.105.105-.21C3.208.796 6.674-.097 10.193.01c.525 0 1.05.052 1.575.104 2.626.263 5.2 1.103 7.51 2.416l.105.053c.053 0 .053.052.053.105v.157c0 .473 0 .946-.053 1.418a27.289 27.289 0 01-.262 2.049c-.263 1.47-.736 2.888-1.313 4.2-1.628 3.677-4.412 6.776-7.878 8.824l-.21.105z" mask="url(#b)"/></g><path d="M0 0h24v24H0z"/></g></svg>