<svg width="108" height="81" viewBox="0 0 108 81" fill="none" xmlns="http://www.w3.org/2000/svg">
<path fill-rule="evenodd" clip-rule="evenodd" d="M56.8738 78.223L56.8779 78.2255C59.4851 79.8342 62.7835 80.62 66.7405 80.62C70.6968 80.62 73.971 79.8344 76.5271 78.223C79.0548 76.6294 81.0339 74.4848 82.4605 71.7975C83.9315 69.1267 84.9338 66.0575 85.4745 62.5972C86.0121 59.1564 86.2805 55.5571 86.2805 51.8C86.2805 49.6011 86.2001 47.3495 86.0393 45.0452C85.8776 42.7282 85.5542 40.49 85.0685 38.331C84.5813 36.1123 83.8772 34.0255 82.9551 32.0717C82.0785 30.1011 80.8993 28.3725 79.4174 26.8898C77.9784 25.3965 76.2127 24.2401 74.1293 23.417C72.0285 22.5335 69.5613 22.1 66.7405 22.1C62.6227 22.1 59.2376 22.9396 56.6252 24.6626C54.045 26.3644 52.0403 28.6172 50.615 31.4129L50.6133 31.4164C49.2523 34.1383 48.3317 37.2317 47.8454 40.6904C47.362 44.1276 47.1205 47.6442 47.1205 51.24C47.1205 55.1561 47.3887 58.8879 47.9261 62.4349L47.9263 62.436C48.4666 65.9478 49.4411 69.0683 50.8568 71.7907L50.8626 71.8013C52.3422 74.4865 54.3469 76.6299 56.8738 78.223ZM77.6431 34.7221C78.6324 36.961 79.288 39.5231 79.6034 42.4142L79.6046 42.4243C79.9751 45.282 80.1605 48.2205 80.1605 51.24C80.1605 54.0478 80.0016 56.9097 79.6834 59.8258C79.3677 62.7201 78.7374 65.3136 77.7977 67.6107C76.8679 69.8835 75.5043 71.7326 73.7081 73.1695L73.7026 73.174C72.0023 74.5743 69.6992 75.3 66.7405 75.3C64.0918 75.3 61.9248 74.7556 60.2107 73.6992C58.5322 72.5784 57.1759 71.0212 56.1454 69.0118C55.1085 66.9899 54.3486 64.5373 53.8747 61.6443C53.4525 58.6864 53.2405 55.4055 53.2405 51.8C53.2405 48.7283 53.4258 45.7105 53.7961 42.7464C54.2176 39.7977 54.9271 37.1765 55.9195 34.8782C56.9046 32.597 58.2439 30.8011 59.9299 29.4727L59.9314 29.4715C61.6381 28.1162 63.8411 27.42 66.5805 27.42C69.4913 27.42 71.7742 28.0952 73.4767 29.3972L73.4823 29.4014C75.2742 30.7325 76.6619 32.5014 77.6431 34.7221Z" fill="#17CA94"/>
<path d="M0 21.4838L13.68 44.3638H5.18151V49.6838H16.9124L19.7415 54.5974V57.3238H5.18151V62.6438H19.7415V80.0838H25.8615V62.6438H40.4215V57.3238H25.8615V54.5974L28.6906 49.6838H40.4215V44.3638H31.923L45.603 21.4838H38.594L22.7269 48.7406L7.2526 21.4838H0Z" fill="#17CA94"/>
<path d="M107.625 19.0783C107.537 18.9025 107.317 18.8139 107.142 18.7703C106.129 18.7703 97.4231 18.4188 97.4231 8.30513C97.4231 7.99716 97.1601 7.73421 96.8508 7.73421C96.5442 7.73421 96.2799 7.99858 96.2799 8.30513C96.2799 18.4204 87.5722 18.7703 86.6049 18.7703C86.4727 18.7703 86.3405 18.8139 86.2533 18.9025C86.1647 18.9461 86.1211 19.0333 86.0775 19.0783C85.9889 19.2541 85.9889 19.4735 86.0775 19.6506C86.1647 19.8264 86.3855 19.9586 86.6048 19.9586H86.6484C87.6595 19.9586 96.3234 20.3102 96.3234 30.4238C96.3234 30.7318 96.5864 30.9961 96.8958 30.9961C97.2037 30.9961 97.4667 30.7318 97.4667 30.4238C97.4667 20.3535 106.129 19.9586 107.142 19.9586C107.361 19.9586 107.537 19.8278 107.669 19.6506C107.756 19.4748 107.756 19.2555 107.625 19.0783Z" fill="#17CA94"/>
<path d="M89.5945 7.64578C89.9024 7.64578 90.1668 7.3814 90.1668 7.02986C90.1668 6.72189 89.9024 6.45893 89.5945 6.45893C89.0671 6.45893 84.3183 6.28315 84.3183 0.742494C84.3183 0.434525 84.0539 0.170166 83.746 0.170166C83.438 0.170166 83.1751 0.434543 83.1751 0.742494C83.1751 6.28325 78.4263 6.45893 77.8989 6.45893H77.8553C77.5473 6.50253 77.328 6.7219 77.328 7.02986C77.328 7.33783 77.5924 7.60219 77.9003 7.60219C78.4726 7.60219 83.1765 7.77797 83.1765 13.3186C83.1765 13.6266 83.4394 13.891 83.7474 13.891C84.0118 13.9345 84.2747 13.6716 84.2747 13.3636C84.2747 7.82287 89.0235 7.64719 89.5509 7.64719L89.5945 7.64578Z" fill="#17CA94"/>
</svg>
