<svg width="90" height="109" viewBox="0 0 90 109" fill="none" xmlns="http://www.w3.org/2000/svg">
<path fill-rule="evenodd" clip-rule="evenodd" d="M83.391 37.475L86.5745 29.7433C87.0908 28.4949 86.5 27.0567 85.2495 26.5389L77.5404 23.3289V14.9529C77.5404 13.5952 76.4448 12.4964 75.0911 12.4964H66.7395L63.5388 4.7589C63.0226 3.51055 61.5943 2.91802 60.3438 3.43576L52.6347 6.6286L46.7438 0.72053C45.7859 -0.240177 44.2373 -0.240177 43.285 0.72053L37.377 6.64583L29.6678 3.43576C29.0656 3.18839 28.3945 3.18839 27.798 3.43576C27.1842 3.68314 26.7081 4.16062 26.4615 4.7589L23.2608 12.4964H14.9092C13.5555 12.4964 12.4599 13.5951 12.4599 14.9529V23.3289L4.75074 26.5389C3.50603 27.0567 2.9095 28.4949 3.42574 29.7433L6.60925 37.475L0.718427 43.3888C-0.239476 44.3495 -0.239476 45.9027 0.718427 46.8578L6.62643 52.7831L3.42574 60.5148C3.17909 61.1188 3.17909 61.7919 3.42574 62.3959C3.67238 62.9999 4.14847 63.4774 4.75074 63.7248L12.4599 66.9348V75.3109C12.4599 76.6685 13.5555 77.7673 14.9092 77.7673H22.8822L13.0482 98.7738C12.641 99.7115 12.8532 100.805 13.5817 101.518C14.3101 102.231 15.4057 102.415 16.3292 101.984L26.1091 97.3931L30.3766 107.34C30.7609 108.231 31.6385 108.812 32.6136 108.818H32.6251C33.5944 108.818 34.472 108.243 34.862 107.357L43.3767 89.6125C43.8241 90.021 44.4034 90.2683 45.0115 90.2683C45.6195 90.2683 46.1988 90.021 46.6462 89.6125L55.138 107.357C55.528 108.243 56.4056 108.818 57.375 108.818H57.3864C58.3615 108.812 59.2391 108.231 59.6234 107.334L63.8909 97.3874L73.6708 101.978C74.5943 102.41 75.6899 102.225 76.4183 101.512C77.1468 100.799 77.359 99.7057 76.9518 98.768L67.1178 77.7616H75.0908C76.4445 77.7616 77.5401 76.6628 77.5401 75.3051V66.9291L85.2493 63.719C85.8515 63.4716 86.3219 62.9884 86.5743 62.3901C86.8209 61.7861 86.8209 61.113 86.5743 60.509L83.3736 52.7773L89.2816 46.852C90.2395 45.8913 90.2395 44.3381 89.2816 43.3831L83.391 37.475ZM32.6541 100.224L29.6026 93.1193C29.3388 92.5095 28.8455 92.032 28.226 91.7961C27.6123 91.5603 26.9239 91.5833 26.3159 91.8709L20.1383 94.7704L25.6703 83.6075L26.4561 85.506C26.9781 86.7543 28.4063 87.3526 29.6568 86.8291L37.366 83.619L39.6546 85.9144L32.6541 100.224ZM69.857 94.7703L63.6794 91.8651C63.0771 91.5832 62.3888 91.5602 61.7693 91.7903C61.1498 92.0262 60.6508 92.5037 60.3927 93.1135L57.3469 100.212L50.3637 85.9023L52.6294 83.6299L60.3443 86.8285C61.6005 87.352 63.023 86.7537 63.5393 85.5054L64.3251 83.6069L69.857 94.7703ZM78.7567 50.4759C78.0569 51.1778 77.8447 52.2362 78.229 53.1509L81.12 60.1291L74.1622 63.0227C73.2502 63.4023 72.6537 64.2998 72.6537 65.2893V72.8542H65.1167C64.1244 72.8542 63.2354 73.4525 62.8566 74.3671L61.9963 76.4496C61.9963 76.4496 61.9962 76.4554 61.9905 76.4554L59.9657 81.351L53.0022 78.4689C52.0902 78.0835 51.0348 78.2963 50.335 79.0039L45.0177 84.3367L39.6833 78.9866C39.213 78.5149 38.5877 78.2676 37.951 78.2676C37.6355 78.2676 37.3143 78.3308 37.0103 78.4574L30.0468 81.3569L28.022 76.4613V76.4556L27.1616 74.373C26.7831 73.4583 25.8882 72.8601 24.9016 72.8601H17.3645V65.2952C17.3645 64.3 16.768 63.4084 15.8561 63.0286L8.89828 60.135L11.7893 53.1568C12.1679 52.2364 11.9614 51.1837 11.2558 50.4818L5.92141 45.1318L11.2387 39.7989C11.9385 39.0971 12.1507 38.0443 11.7721 37.1239L8.89843 30.14L15.8619 27.2406C16.7739 26.8609 17.3704 25.9634 17.3704 24.9739V17.4148H24.9075C25.8998 17.4148 26.7888 16.8165 27.1675 15.9019L30.0585 8.918L37.022 11.8175C37.934 12.1914 38.9894 11.9901 39.6892 11.2825L45.0237 5.9324L50.3409 11.2652C51.0407 11.9671 52.0904 12.1799 53.0082 11.8002L59.9716 8.91814L62.8627 15.9078C63.2412 16.8225 64.136 17.4207 65.1227 17.4207H72.6597V24.9798C72.6597 25.975 73.2563 26.8666 74.1682 27.2464L81.1317 30.1459L78.2581 37.1298C77.8795 38.0445 78.0917 39.1029 78.7915 39.8048L84.1088 45.1377L78.7567 50.4759ZM44.9998 17.1819C29.6567 17.1819 17.1816 29.664 17.1816 45.0001C17.1816 60.3372 29.6637 72.8182 44.9998 72.8182C60.3429 72.8182 72.818 60.3362 72.818 45.0001C72.818 29.6629 60.3417 17.1819 44.9998 17.1819ZM44.9998 67.8606C32.3955 67.8606 22.1407 57.6052 22.1407 45.0016C22.1407 32.3979 32.3961 22.1425 44.9998 22.1425C57.6035 22.1425 67.8589 32.3979 67.8589 45.0016C67.8589 57.6052 57.6035 67.8606 44.9998 67.8606ZM49.6864 50.5771L56.203 41.456H56.2027C55.4325 41.1044 54.8923 40.3246 54.8923 39.4201C54.8923 38.1897 55.8927 37.1893 57.1264 37.1893C58.3568 37.1893 59.3572 38.1897 59.3572 39.4201C59.3572 40.6538 58.3568 41.6542 57.1264 41.6542C57.0337 41.6542 56.9442 41.6478 56.8579 41.6382L54.1509 56.5283C54.1509 56.5283 49.6861 55.7101 45.2245 55.7101C40.763 55.7101 36.2981 56.5283 36.2981 56.5283L33.5911 41.6382C33.5048 41.6478 33.4153 41.6542 33.3227 41.6542C32.0922 41.6542 31.0918 40.6538 31.0918 39.4201C31.0918 38.1897 32.0922 37.1893 33.3227 37.1893C34.5563 37.1893 35.5567 38.1897 35.5567 39.4201C35.5567 40.3246 35.0165 41.1044 34.2463 41.456L40.763 50.5771L44.79 37.1474C43.7672 36.9461 42.9938 36.0416 42.9938 34.9582C42.9938 33.7245 43.991 32.7273 45.2247 32.7273C46.4583 32.7273 47.4555 33.7245 47.4555 34.9582C47.4555 36.0416 46.6821 36.9461 45.6594 37.1474L49.6864 50.5771Z" fill="#17CA94"/>
</svg>
