<svg width="100" height="100" viewBox="0 0 100 100" fill="none" xmlns="http://www.w3.org/2000/svg">
<path fill-rule="evenodd" clip-rule="evenodd" d="M50 99.9558C22.4315 99.9558 0 77.5354 0 49.9779C0 22.4204 22.4315 0 50 0C77.5685 0 100 22.4204 100 49.9779C100 77.5354 77.5685 99.9558 50 99.9558ZM36.4042 6.37249C40.0451 5.23598 43.8802 4.54343 47.8457 4.35856V10.9283C44.6656 11.1015 41.5853 11.6561 38.6501 12.547L36.4042 6.37249ZM61.336 12.5434C58.4048 11.6548 55.3293 11.1015 52.1541 10.9284V4.35854C56.1148 4.54316 59.9453 5.23415 63.5821 6.36807L61.336 12.5434ZM73.4433 18.6868C70.9674 16.8287 68.2649 15.2569 65.3852 14.021L67.6315 7.84527C71.2335 9.35676 74.6024 11.3168 77.6677 13.6551L73.4433 18.6868ZM82.7322 28.5758C81.0215 25.9707 79.0082 23.5811 76.7426 21.4572L80.9672 16.4255C83.8103 19.0489 86.3204 22.0279 88.426 25.291L82.7322 28.5758ZM88.091 41.0267C87.3709 37.9654 86.2901 35.0415 84.8958 32.3026L90.5894 29.0179C92.3525 32.4153 93.7011 36.0608 94.5677 39.887L88.091 41.0267ZM89.1253 49.9794C89.1253 48.3858 89.0294 46.8141 88.8432 45.2698L95.3188 44.1303C95.5647 46.0453 95.6916 47.9971 95.6916 49.9779C95.6916 51.9137 95.5704 53.8218 95.3354 55.6949L88.8591 54.5547C89.0349 53.0537 89.1253 51.5269 89.1253 49.9794ZM84.9568 67.5348C86.3414 64.7917 87.4122 61.8644 88.1216 58.8004L94.5966 59.9404C93.7411 63.769 92.4034 67.4178 90.6506 70.8195L84.9568 67.5348ZM76.853 78.3948C79.1061 76.2668 81.1071 73.8748 82.8058 71.2688L88.4981 74.5527C86.4051 77.817 83.9082 80.7989 81.0783 83.4274L76.853 78.3948ZM65.5329 85.8695C68.4041 84.6235 71.0977 83.043 73.564 81.1776L77.788 86.2087C74.7338 88.5544 71.3758 90.5236 67.7841 92.0462L65.5329 85.8695ZM52.3319 89.0149C55.5014 88.8278 58.5705 88.2619 61.4945 87.362L63.7449 93.5367C60.114 94.6837 56.2885 95.3889 52.3319 95.5886V89.0149ZM38.8361 87.4621C41.7702 88.3367 44.8475 88.8757 48.0234 89.0344V95.6052C44.0617 95.4358 40.229 94.7599 36.5888 93.6406L38.8361 87.4621ZM26.6881 81.3656C29.1756 83.216 31.8895 84.7786 34.78 86.0032L32.5336 92.1794C28.9202 90.6799 25.5394 88.7297 22.4619 86.3993L26.6881 81.3656ZM19.1527 83.6406L23.3771 78.609C21.0958 76.4882 19.0673 74.0992 17.3424 71.4927L11.6474 74.7782C13.7676 78.0426 16.2933 81.0207 19.1527 83.6406ZM9.47302 71.0577L15.1656 67.7736C13.7524 65.0217 12.6561 62.0817 11.9253 59.002L5.44894 60.1422C6.3264 63.9866 7.6906 67.6479 9.47302 71.0577ZM10.873 49.9739C10.873 51.594 10.9721 53.1914 11.1645 54.7604L4.69083 55.9001C4.43857 53.9612 4.30844 51.9845 4.30844 49.9779C4.30844 48.0443 4.42929 46.1384 4.66382 44.2674L11.1383 45.4073C10.9631 46.9056 10.873 48.4294 10.873 49.9739ZM5.40203 40.0217L11.8751 41.1614C12.5884 38.0782 13.6677 35.1332 15.0645 32.375L9.37358 29.09C7.60801 32.5067 6.26137 36.1734 5.40203 40.0217ZM11.5303 25.3593L17.2204 28.6438C18.9335 26.0231 20.9525 23.6195 23.2263 21.4838L19.003 16.4535C16.1525 19.0885 13.6376 22.0811 11.5303 25.3593ZM34.6013 14.0258C31.7136 15.2662 29.0041 16.8443 26.5229 18.7101L22.2999 13.6802C25.3702 11.3338 28.7456 9.36716 32.3553 7.85104L34.6013 14.0258ZM49.9992 15.1782C30.7994 15.1782 15.1815 30.7906 15.1815 49.9794C15.1815 69.1682 30.7994 84.7752 49.9992 84.7752C69.199 84.7752 84.8169 69.1627 84.8169 49.9739C84.8169 30.7906 69.199 15.1782 49.9992 15.1782ZM27.8023 59.3281C26.3375 58.6367 25.4996 57.3887 25.2887 55.584H22.0016C22.1891 57.9746 23.068 59.75 24.6383 60.9102C26.2203 62.0586 28.0367 62.6328 30.0875 62.6328C33.3102 62.6328 35.6539 61.7246 37.1188 59.9082C38.5953 58.0918 39.3336 55.9941 39.3336 53.6152C39.3336 51.3301 38.5309 49.4434 36.9254 47.9551C35.3199 46.4668 33.3629 45.7227 31.0543 45.7227C29.8238 45.7227 28.7398 45.916 27.8023 46.3027C27.275 46.5254 26.7184 46.8594 26.1324 47.3047L27.2047 40.3086H37.9098V37.25H24.8316L22.9156 50.8027L25.6578 50.9609C26.2086 50.2109 26.8707 49.625 27.6441 49.2031C28.4293 48.7812 29.3668 48.5703 30.4566 48.5703C31.9566 48.5703 33.2398 49.0508 34.3063 50.0117C35.3844 50.9727 35.9234 52.332 35.9234 54.0898C35.9234 55.543 35.4723 56.8672 34.5699 58.0625C33.6676 59.2578 32.2789 59.8555 30.4039 59.8555C29.4195 59.8555 28.5523 59.6797 27.8023 59.3281ZM56.7852 40.8535C55.332 38.1699 52.9766 36.8281 49.7188 36.8281C46.0977 36.8281 43.5957 38.7383 42.2129 42.5586C41.4746 44.6094 41.1055 47.0645 41.1055 49.9238C41.1055 53.6152 41.7207 56.5566 42.9512 58.748C44.4277 61.373 46.6777 62.6855 49.7012 62.6855C53.0527 62.6855 55.4668 61.0801 56.9434 57.8691C57.9629 55.6309 58.4727 52.8008 58.4727 49.3789C58.4727 45.7695 57.9102 42.9277 56.7852 40.8535ZM53.6035 57.623C52.6309 59.0762 51.3242 59.8027 49.6836 59.8027C47.6445 59.8027 46.2031 58.6133 45.3594 56.2344C44.8086 54.6758 44.5332 52.6133 44.5332 50.0469C44.5332 46.6367 44.9609 44.0586 45.8164 42.3125C46.6836 40.5547 48.0488 39.6758 49.9121 39.6758C51.9395 39.6758 53.3047 40.6016 54.0078 42.4531C54.7109 44.293 55.0625 46.6426 55.0625 49.502C55.0625 53.4629 54.5762 56.1699 53.6035 57.623ZM75.9242 40.8535C74.4711 38.1699 72.1156 36.8281 68.8578 36.8281C65.2367 36.8281 62.7348 38.7383 61.352 42.5586C60.6137 44.6094 60.2445 47.0645 60.2445 49.9238C60.2445 53.6152 60.8598 56.5566 62.0902 58.748C63.5668 61.373 65.8168 62.6855 68.8402 62.6855C72.1918 62.6855 74.6059 61.0801 76.0824 57.8691C77.102 55.6309 77.6117 52.8008 77.6117 49.3789C77.6117 45.7695 77.0492 42.9277 75.9242 40.8535ZM72.7426 57.623C71.7699 59.0762 70.4633 59.8027 68.8227 59.8027C66.7836 59.8027 65.3422 58.6133 64.4984 56.2344C63.9477 54.6758 63.6723 52.6133 63.6723 50.0469C63.6723 46.6367 64.1 44.0586 64.9555 42.3125C65.8227 40.5547 67.1879 39.6758 69.0512 39.6758C71.0785 39.6758 72.4437 40.6016 73.1469 42.4531C73.85 44.293 74.2016 46.6426 74.2016 49.502C74.2016 53.4629 73.7152 56.1699 72.7426 57.623Z" fill="#17CA94"/>
</svg>
